PathFileType	4	(X/Y/Z)	C:/Users/beibeiliu/ov580/test_trc/User3\sequence.48_training_dense_left.trc
DataRate	CameraRate	NumFrames	NumMarkers	Units	OrigDataRate	OrigDataStartFrame	OrigNumFrames
120	120	7	19	mm	120	27	188
Frame#	Time	ThumbCMC			ThumbMCP			ThumbIP			ThumbTip			IndexMCP			IndexPIP			IndexTip			MiddleMCP			MiddlePIP			MiddleTip			RingMCP			RingPIP			RingTip			PinkyMCP			PinkyPIP			PinkyTip			BackHand1			BackHand2			BackHand3	
		X0	Y0	Z0	X1	Y1	Z1	X2	Y2	Z2	X3	Y3	Z3	X4	Y4	Z4	X5	Y5	Z5	X6	Y6	Z6	X7	Y7	Z7	X8	Y8	Z8	X9	Y9	Z9	X10	Y10	Z10	X11	Y11	Z11	X12	Y12	Z12	X13	Y13	Z13	X14	Y14	Z14	X15	Y15	Z15	X16	Y16	Z16	X17	Y17	Z17	X18	Y18	Z18	
26	0.216667	-177.446	-53.1419	71.5187	-186.897	-35.1762	44.3661	-181.182	-24.4875	17.4197	-162.826	-17.3182	1.88565	-164.349	-51.24	3.58365	-155.18	-19.655	9.02623	-155.496	-26.7311	40.8476	-137.629	-45.9639	4.17413	-141.533	-19.5115	20.1024	-143.696	-41.3277	52.5136	-124.943	-44.819	12.0499	-125.735	-20.7744	32.9107	-134.241	-41.0207	59.6018	-106.034	-46.7615	22.6539	-115.961	-26.6065	40.7363	-119.186	-41.6138	65.2918	-120.802	-89.0156	49.0825	-121.014	-91.0477	85.3418	-156.144	-85.7164	65.8175	
27	0.225	-173.371	-52.2572	72.7208	-187.67	-33.6138	47.0545	-184.512	-24.0042	13.8263	-165.997	-16.3666	-4.32006	-161.465	-54.3771	3.51748	-159.444	-19.0963	8.33177	-153.106	-26.3924	39.1213	-142.796	-46.555	2.90801	-137.862	-19.5311	18.8945	-144.941	-43.8631	52.9896	-121.954	-47.4709	12.0493	-124.076	-21.9555	32.5064	-129.994	-37.6989	58.3207	-105.239	-47.0503	21.0484	-113.791	-26.785	36.0434	-118.676	-41.9827	62.8356	-125.82	-87.6528	51.8469	-121.07	-87.1913	85.2542	-154.745	-84.7809	64.7673	
28	0.233333	-177.398	-52.0527	70.0326	-184.959	-35.4641	47.9362	-184.756	-23.3413	17.9608	-169.027	-15.1585	0.0889272	-161.617	-53.5778	-1.3293	-158.046	-22.0642	-1.37098	-154.359	-24.2491	35.4324	-142.755	-50.7803	0.973967	-140.806	-17.6251	12.1302	-140.737	-33.4194	44.8044	-123.319	-43.2533	10.4449	-126.994	-18.2816	28.2801	-133.079	-33.5413	55.065	-108.285	-45.3176	20.8657	-113.827	-23.123	39.3303	-119.388	-39.3613	64.3005	-120.529	-87.5179	47.9352	-122.525	-86.6578	85.4489	-154.253	-85.4285	66.4725	
29	0.241667	-176.567	-52.4297	72.5137	-185.24	-35.5171	46.0354	-191.279	-19.0024	19.9379	-173.741	-7.46807	0.0758596	-158.35	-59.5381	-3.28931	-159.617	-27.225	-15.0285	-159.826	-15.0577	18.6094	-135.859	-51.9772	-6.00698	-137.166	-19.067	-1.36843	-141.366	-26.8687	39.0266	-121.261	-43.4459	8.57856	-123.792	-16.9405	22.5825	-128.992	-29.2993	52.3041	-108.027	-42.8847	22.0497	-114.926	-19.7687	38.8504	-122.102	-36.4562	62.8589	-123.699	-85.2422	51.0399	-122.885	-85.1299	81.3139	-154.821	-84.9529	64.738	
30	0.25	-173.331	-54.7056	67.8728	-188.453	-34.0183	44.7481	-186.236	-17.4971	23.8673	-172.231	-4.33615	3.14154	-158.836	-61.6615	-8.73469	-154.088	-37.3762	-25.161	-152.556	-7.22181	-3.02266	-131.967	-57.2021	-5.76201	-130.976	-22.5216	-12.2632	-134.7	-14.018	24.2932	-116.37	-43.7533	5.36157	-117.116	-15.3613	18.9309	-131.378	-23.7838	47.0424	-103.134	-39.7468	22.6456	-109.892	-18.6067	36.6826	-121.704	-33.3012	65.3404	-116.612	-86.8912	48.2062	-119.861	-87.1808	82.3158	-151.254	-86.3383	62.0922	
31	0.258333	-173.999	-54.3952	71.3799	-186.84	-30.803	47.404	-182.653	-15.7808	25.4586	-172.182	0.141715	4.6842	-153.199	-60.7289	-6.81145	-154.019	-37.7608	-26.1799	-151.078	-5.38521	-17.7373	-131.173	-56.2847	-8.55802	-128.928	-24.4662	-16.0705	-133.332	-2.17151	16.0214	-110.919	-48.0413	8.56442	-112.778	-18.9165	10.1029	-125.125	-15.6321	42.7632	-96.7978	-44.4378	25.4834	-104.666	-17.2132	36.3845	-116.923	-24.4764	60.3609	-118.121	-87.6285	51.2084	-122.949	-88.1027	84.4192	-155.566	-84.3929	61.5262	
32	0.266667	-173.534	-52.7216	72.053	-181.911	-31.314	49.3056	-179.293	-13.588	23.9967	-163.021	-3.85118	5.90669	-156.987	-59.7798	-0.55013	-150.975	-34.5261	-22.6754	-145.33	-4.0408	-18.0512	-130.347	-60.6794	-3.58161	-126.161	-31.2153	-20.666	-127.969	0.280585	2.75084	-113.504	-54.0738	7.28291	-107.851	-24.2369	3.52271	-117.378	-9.44938	32.4988	-94.3281	-48.4131	24.8945	-102.737	-21.7289	27.3617	-116.418	-20.939	55.504	-119.184	-89.0626	52.6368	-124.956	-89.6087	86.0992	-151.25	-84.2405	65.491	
